<svg xmlns="http://www.w3.org/2000/svg" viewBox="0 0 512 512" role="img" data-icon-index="10" data-icon-name="Evidence"><title>Evidence</title><path fill="#f6f1e7" d="M122 62h181v2l6-1c4.67 4.02 4.67 4.02 9.75 9.38 9.19 9.59 9.19 9.59 11.25 10.62v2h2v2h2v2h2v2h2v2h2v2h2v2h2v2h2v2h2v2h2v2h2v2h2v2h2v2h2v2h2v2h2c2.35 2.66 4.68 5.32 7 8l5 4v3l2 1 5 6 2 1v2h2v2h2v2h2v2h2v2h2v2h2v2h2v2h2v2h2v2h2v2h2v4h2c3.31 19.86 1.13 43.32 1.13 63.18 0 11.67.01 23.35.01 35.38-.01 12.31-.01 24.63-.02 37.32.01 12.3.01 24.61.02 37.29 0 5.84 0 5.84-.01 35.38v32.77C408 430 408 430 407 438h-2v4h-2v2h-2v2h-2v2h-2v3c-46.6.09-93.21.14-139.81.19-6.67.01-6.67.01-40.4.07l-38.25.03c-11.71.02-23.43.03-35.5.05C117 451 117 451 114 448l-4-2-1-4-3-2c-4.78-19.11-1.13-65.38-1.13-82.82 0-16.17-.01-32.34-.01-49 .01-8.54.01-8.54.02-51.74-.01-17.08-.01-34.16-.02-51.76 0-16.17.01-32.34.01-49v-45.45C105 77 105 77 106 74c2.65-2.35 5.32-4.68 8-7l3-4 5 1z"/><path fill="#43576e" d="M122 62h181v2l6-1c4.67 4.02 4.67 4.02 9.75 9.38 9.19 9.59 9.19 9.59 11.25 10.62v2h2v2h2v2h2v2h2v2h2v2h2v2h2v2h2v2h2v2h2v2h2v2h2v2h2v2h2v2h2v2h2c2.35 2.66 4.68 5.32 7 8l5 4v3l2 1 5 6 2 1v2h2v2h2v2h2v2h2v2h2v2h2v2h2v2h2v2h2v2h2v2h2v4h2c3.31 19.86 1.13 43.32 1.13 63.18 0 11.67.01 23.35.01 35.38-.01 12.31-.01 24.63-.02 37.32.01 12.3.01 24.61.02 37.29 0 5.84 0 5.84-.01 35.38v32.77C408 430 408 430 407 438h-2v4h-2v2h-2v2h-2v2h-2v3c-46.6.09-93.21.14-139.81.19-6.67.01-6.67.01-40.4.07l-38.25.03c-11.71.02-23.43.03-35.5.05C117 451 117 451 114 448l-4-2-1-4-3-2c-4.78-19.11-1.13-65.38-1.13-82.82 0-16.17-.01-32.34-.01-49 .01-8.54.01-8.54.02-51.74-.01-17.08-.01-34.16-.02-51.76 0-16.17.01-32.34.01-49v-45.45C105 77 105 77 106 74c2.65-2.35 5.32-4.68 8-7l3-4 5 1zm-3 18c-.7 17.44-.89 34.9-.9 52.35-.02 10.95-.05 21.91-.07 33.19l.03 35.08c-.01 11.22-.03 22.43-.05 33.99-.02 22.2-.03 44.4-.01 66.61 0 20.64-.07 41.29-.21 61.93-.06 8.99-.11 17.98-.17 27.25-.07 7.92-.14 15.85-.21 24.01C118 432 118 432 124 438c36.28 12.09 94.66 1.33 132.75 1.38 12.33.03 24.66.07 37.36.11 5.85 0 5.85 0 35.44.03l32.84.06C387 439 387 439 394 434c.7-15.57.92-31.15.94-46.73.02-9.64.05-19.27.08-29.2-.01-10.17-.01-20.34-.02-30.82.02-10.03.05-20.06.07-30.4.15-83.73.15-83.73-1.07-121.85-1-1-1-1-8.05-1.11h-9.61c-3.43-.01-6.87-.03-10.41-.04-7.3-.03-14.6-.03-21.9-.02l-10.44-.06c-1.59 0-1.59 0-9.63-.01-7.86-.75-10.7-1.11-15.96-6.76-6.17-9.87-5.63-15.32-5.64-26.9l-.06-11.26c.01-3.89.01-7.77.01-11.78-.01-7.69-.04-15.39-.07-23.09V83.61L302 76c-20.04-10.02-66.44-1.34-88.69-1.38-8.23-.03-16.46-.07-24.94-.11-3.91 0-3.91 0-23.69-.03l-21.94-.06C126 75 126 75 119 80"/><path fill="#2d415b" d="M393 170c6 5 6 5 6.69 10.25.1 1.57.2 3.13.31 4.75l3 1-.12-5.81C403 174 403 174 405 171c.12 2.35.25 4.7.38 7.12C406 186 406 186 408 192c.19 17.45.24 34.91.23 52.37 0 10.68 0 21.36-.01 32.37l-.03 34.14v34.11c-.05 83.89-.05 83.89-1.19 93.01h-2v4h-2v2h-2v2h-2v2h-2v3H120v-4l-4-1-1-2c5 1 5 1 6 2l7 1v-2l-2-1 1-1-5-4c44.06.16 44.06.16 267 1l1-4 4-4c.55-6.05.55-6.05.61-14.1.03-3.11.06-6.22.1-9.42.01-3.48.03-6.96.04-10.54l.09-11.03c.08-13.31.13-26.61.16-39.91.01-2.82.01-2.82.05-17.1.04-18.53.06-37.06.07-55.59.01-3 .01-3 .02-18.2-.03-81-.03-81-2.14-83.11l-7-1v-2c3-1 3-1 7 0"/><path fill="#28405a" d="M318.563 326.813c3.25-.01 6.5-.02 9.84-.04h9.35c1.43-.01 1.43-.01 8.64-.02 6.61.25 6.61.25 9.61 2.25.3 4.99.39 10 .4 15 0 3.05 0 6.1.01 9.25-.01 3.21-.03 6.43-.04 9.75.01 3.21.03 6.43.04 9.75-.01 3.05-.01 6.1-.01 9.25-.01 2.82-.01 5.65-.01 8.56-.07 1.06-.07 1.06-.39 6.44-9 6-28.04 2.32-38.56 2.31-1.68.01-1.68.01-10.17.05h-9.65c-2.95 0-5.89.01-8.93.01-2.21-.12-4.42-.25-6.69-.37-3.56-5.34-2.22-11.93-2.2-18.17.01-3.06.02-6.12.02-9.27.02-3.22.04-6.43.05-9.75l.03-9.79c.02-8.01.06-16.01.1-24.02 12.09-3.03 26.16-1.19 38.56-1.19"/><path fill="#102440" d="M161.777 64.602c8.06 0 16.12-.01 24.43-.01 4.25 0 4.25 0 25.73.03l25.72-.03c4.03 0 4.03 0 24.43.01 7.46 0 14.91.01 22.59.01 19.42.44 19.42.44 29.32 5.39l1 5-5-3v-2c-11.73-2.06-23.1-2.21-35-2l-1 3h10l-2 3c-8.45.3-16.59.03-25-1 4-3 4-3 9.75-2.19 1.74.39 3.47.78 5.25 1.19v-5h-39v4l5-1c3.11.24 6.22.56 9.32.94 1.62.19 3.25.39 4.92.59 1.24.15 2.48.31 3.76.47l-1 2c-3 .2-6.02.26-9.03.26-1.84.01-3.68.01-5.58.01-1.94-.01-3.89-.01-5.89-.02-.97 0-.97 0-5.88.02-1.85 0-3.69 0-5.59-.01h-5.17c-1.27-.09-2.54-.17-3.86-.26-.16-.33-.16-.33-1-2l18-1v-4h-53c.17.49.17.49 1 3 4.57 1.19 4.57 1.19 9 2v2h-37v-2l23-1 1-4c-8.56.14-17.12.29-25.68.44-2.44.04-4.88.07-7.39.12l-7.06.12c-1.08.02-1.08.02-6.53.11-5.34.21-5.34.21-10.34 1.21v2l-4 4h-2v6l-1 1v4c0 4.75-.4 9.29-1 14 .83-.17.83-.17 5-1-.02-1.27-.04-2.53-.07-3.83-.01-.83-.01-.83-.05-4.98-.03-1.64-.05-3.28-.07-4.96.19-4.23.19-4.23 2.19-7.23h2v-2h2v-2h2v-2h22v2c-.69.01-.69.01-4.2.04l-5.48.15c-.9.01-.9.01-5.45.1-4.87.71-4.87.71-9.87 5.71-.52 17.44-.68 34.9-.7 52.35l-.09 33.19c-.01 11.58-.01 23.15-.02 35.08-.02 11.22-.05 22.43-.08 33.99-.06 32.79-.09 65.59-.11 98.39-.02 9.95-.05 19.9-.08 30.15-.02 8.99-.03 17.98-.05 27.25-.03 7.92-.05 15.85-.07 24.01.2 17.59.2 17.59 2.2 23.59h-2v-2h-2l-3-5-7-1c-.03-57.33-.04-114.67-.06-172l-.03-49.66c0-15.54 0-31.08-.01-47.09 0-14.41-.01-28.83-.01-43.67.13-38.95.13-38.95 4.11-45.58h2v-2h2v-2c14.12-6.05 31.76-3.39 46.78-3.4"/><path fill="#f3f0e8" d="M314 87c5.68 3.41 9.64 7.38 14.31 12.06 1.63 1.62 3.25 3.24 4.93 4.91C337 108 337 108 337 110l4 2c2.74 2.54 5.41 5.15 8.05 7.79.8.79.8.79 4.81 4.79 1.65 1.67 3.31 3.33 5.02 5.04.82.83.82.83 4.99 4.98 1.59 1.59 3.17 3.18 4.81 4.81 1.45 1.46 2.9 2.91 4.4 4.41 3.64 3.88 6.74 7.92 9.92 12.18l4 3v2c-11.6.09-23.21.14-34.81.19-1.66.01-1.66.01-10.04.07l-9.54.03c-1.46.01-1.46.01-8.84.05C317 161 317 161 314 158c-.26-5.27-.32-10.55-.29-15.82l.03-9.68c.02-3.36.05-6.72.07-10.19.02-3.37.03-6.74.04-10.22.04-8.36.09-16.73.15-25.09"/><path fill="#2c3e57" d="m122 439 266 1v2c-5 2-5 2-8 1l1 3c6.07 1.36 8.76.78 15-1v2c-10.98 7.32-34.37 3.08-47 3v-3c10.06-.12 19.97.35 30 1v-3h-2v-2h-59v4l6-1c.66.17.66.17 4 1 2.92-.09 5.84-.24 8.75-.44 1.54-.1 3.08-.2 4.67-.31 1.18-.08 2.36-.16 3.58-.25v5H120v-4l-4-1-1-2c5 1 5 1 6 2l7 1v-2l-2-1 1-1z"/><path fill="#173050" d="M118 82h1c.03 39.79.05 79.58.06 119.38l.03 33.78c.02 65.29-.25 130.56-1.09 195.84h-1l-1-39-3 1v2h-3l2-4 1-6h2v4h2V241h-2v91h-5c.01-1.57.01-3.14.02-4.76.02-7.21.03-14.41.04-21.62.01-1.23.01-1.23.03-7.49.03-20.73.03-20.73-.59-30.17-1.44-22.07-.46-44.36-.06-66.46l.12-7.61.12-7.23c.04-2.15.08-4.3.11-6.51C110 175 110 175 111 171l-1-2c-.13-3.96-.18-7.92-.19-11.88-.01-2.16-.03-4.32-.04-6.55C110 145 110 145 112 141h-2v-4h3c-.5-1.16-.99-2.31-1.5-3.5-2.03-7.43-1.82-13.8-1.5-21.5l2-1c-.17-.83-.17-.83-1-5l2-4h5z"/><path fill="#676d79" d="M122 62h181v2l6-1c4.67 4.02 4.67 4.02 9.75 9.38 9.19 9.59 9.19 9.59 11.25 10.62v2h2v2h2v2l-4-1v-2h-2v-2h-3l-1-4h-2v-2h-2v-2h-2v-2h-2v-2h-2v-2c-16.51-6.6-34.3-4.26-51.81-4.27h-24.45c-8.49 0-16.99.01-25.74.02-4.25 0-4.25 0-25.74-.02h-24.45c-3.73.01-3.73.01-22.6.01C122 66 122 66 115 68v2h-2v2h-2c-9.73 24.32-3.08 62.98-3.06 87.73.01 15.24.01 30.48.02 46.18.01 16.08.03 32.15.04 48.71q.045 47.46.06 94.92c.01 14.12.03 28.24.04 42.79C108 424 108 424 107 430h7c3 4 3 4 3 6h2v2h2l-2-5 5 4c12.19 4.06 49.86 1.1 60.61 1.1 11.81-.01 23.62-.01 35.79-.01l37.79-.03c6.24 0 6.24 0 37.82-.01 31-.01 61.99-.03 92.99-.05v2H124c.66.5.66.5 4 3v4c-7 0-7 0-12-2l4 2c-.16.66-.16.66-1 4h-2l-3-3-4-2-1-4-3-2c-4.78-19.11-1.13-65.38-1.13-82.82 0-16.17-.01-32.34-.01-49 .01-8.54.01-8.54.02-51.74-.01-17.08-.01-34.16-.02-51.76 0-16.17.01-32.34.01-49v-45.45C105 77 105 77 106 74c2.65-2.35 5.32-4.68 8-7l3-4 5 1z"/><path fill="#454e63" d="M160 233c13.93-.2 27.87-.26 41.81-.27h26.07c4.55 0 4.55 0 27.56.02 9.09-.01 18.17-.02 27.54-.02h26.08c3.99.01 3.99.01 24.2.01C351 233 351 233 353 235v5c-4.63 4.63-20.48 2.38-25.98 2.41l-15.33.12-16.44.09-16.51.12c-15.91.1-31.83.18-47.74.26-4.13.02-8.26.05-12.51.07-9.96.05-19.91.09-29.87.12-2.85.01-5.7.02-8.64.04h-7.69c-2.16 0-4.32.01-6.54.01C161 243 161 243 159 241c0-6 0-6 1-8"/><path fill="#4a5a72" d="M179.858 281.628c7.98 0 15.96.01 24.18.01h26.07c9.08.02 18.16.03 27.52.05 9.08 0 18.17-.01 27.54-.01 49.81.04 49.81.04 67.83.32 1 2 1 2 1 8-10.95 10.96-80.63 1.61-96.37 1.69-9.08.06-18.16.12-27.52.18-8.6.05-17.2.1-26.07.14-7.98.05-15.96.1-24.18.14-17.86-.15-17.86-.15-20.86-2.15v-5c3-3 3-3 20.86-3.37"/><path fill="#56697e" d="m369 132 3 1v2l4 2v2h2c2.35 2.66 4.68 5.32 7 8l5 4c-.16-.82-.16-.82-1-5h2v2h2v2h2v2h2v2h2v2h2v2h2v2h2v4h2c.86 5.18 1.1 9.66 1.06 14.88-.01 1.52-.02 3.04-.02 4.61-.02 1.16-.03 2.32-.04 3.51-.5-.16-.5-.16-3-1-.45-3.99-.79-7.99-1-12l-1 12c-.66-.16-.66-.16-4-1l-.12-4.69C398 175 398 175 392 170h-6v2h7c11.96 11.96 3.13 68.72 3.14 84.12-.01 6-.01 12.01-.02 18.19v18.66c-.04 46.35-.36 92.69-1.12 139.03h-1c0-3.16 0-3.16.02-19.18.02-28.75.03-57.5.04-86.26.01-4.98.01-4.98.03-30.18 0-4.8 0-4.8.01-29.13 0-4.41 0-4.41.01-26.77-.1-21.84-.49-43.65-1.11-65.48-5.52-.04-11.05-.07-16.74-.11-7.19-.07-14.38-.14-21.57-.2-3.65-.03-7.3-.05-11.06-.07-3.46-.04-6.92-.07-10.49-.11-3.21-.02-6.42-.05-9.73-.08C316 174 316 174 313 171c6.76.16 6.76.16 41 1l-1-2c-3.85-.31-7.7-.5-11.56-.62-2.13-.08-4.25-.15-6.44-.23-.83-.03-.83-.03-5-.15l1-4c3.58-.03 7.17-.05 10.75-.06 2-.01 3.99-.03 6.05-.04 5.2.1 5.2.1 9.2 1.1v6h24l-1-2c-3.67-.04-7.33-.04-11 0-.99-.16-.99-.16-6-1v-3c4.01-2 9.26-1.09 13.62-1.06 1.06 0 1.06 0 6.42.02 1.64.02 3.27.03 4.96.04v-2l-6.32.03c-9.37.04-18.74.07-28.12.09l-9.94.06c-1.56 0-1.56 0-9.43.02-1.44 0-1.44 0-8.74.03-2.13-.08-4.26-.15-6.45-.23l-1-2h69v-2l-4-2-4-5c.33-.16.33-.16 2-1v-2h-2v-2h-2c-2.37-2.63-4.7-5.3-7-8l-3-3v-3z"/><path fill="#243b55" d="M395 347h1l1 49h2c-.19-2.39-.37-4.78-.56-7.25C398 381 398 381 399 377h3c.16.66.16.66 1 4v-10l2 4c.06-.65.06-.65.38-3.94.2-1.34.41-2.68.62-4.06.33-.17.33-.17 2-1q.045 15.75.06 31.5l.03 9.05c0 2.86 0 5.72.01 8.67 0 2.64.01 5.28.01 8-.08 5.06-.31 9.79-1.11 14.78h-2v4h-2v2h-2v2h-2v2h-2v3h-52v-5c-.66.16-.66.16-4 1-14.86 1.38-14.86 1.38-19 0h-4v-4c5.72-1.14 10.95-1.13 16.79-1.13 1.16 0 1.16 0 7.04-.01 1.21.01 1.21.01 7.36.02 2.44-.01 4.88-.01 7.39-.02 1.16 0 1.16 0 7.03.01h6.47C375 442 375 442 377 443v2h2v3c-10.08.08-19.95-.08-30-1v3c7.27-.31 14.54-.62 21.81-.94 2.08-.08 4.15-.17 6.29-.26 1.97-.09 3.95-.18 5.98-.26 1.83-.08 3.66-.16 5.54-.24C393 448 393 448 396 447v-2l-7 3c-4.38-.06-4.38-.06-8-1l-1-4 3.88-.12L388 442l2-6 4-4c.42-6.32.57-12.65.61-18.98.02-1.92.02-1.92.1-11.59.01-4.02.03-8.04.04-12.18l.09-12.23c.07-10.01.12-20.01.16-30.02"/><path fill="#0f213d" d="M161.777 64.602c8.06 0 16.12-.01 24.43-.01 4.25 0 4.25 0 25.73.03l25.72-.03c4.03 0 4.03 0 24.43.01 7.46 0 14.91.01 22.59.01 19.42.44 19.42.44 29.32 5.39l1 5-5-3v-2c-11.73-2.06-23.1-2.21-35-2l-1 3h10l-2 3c-8.45.3-16.59.03-25-1 4-3 4-3 9.75-2.19 1.74.39 3.47.78 5.25 1.19v-5h-39v4l5-1c3.11.24 6.22.56 9.32.94 1.62.19 3.25.39 4.92.59 1.24.15 2.48.31 3.76.47l-1 2c-3 .2-6.02.26-9.03.26-1.84.01-3.68.01-5.58.01-1.94-.01-3.89-.01-5.89-.02-.97 0-.97 0-5.88.02-1.85 0-3.69 0-5.59-.01h-5.17c-1.27-.09-2.54-.17-3.86-.26-.16-.33-.16-.33-1-2l18-1v-4h-53c.17.49.17.49 1 3 4.57 1.19 4.57 1.19 9 2v2h-37v-2l23-1 1-4c-8.56.14-17.12.29-25.68.44-2.44.04-4.88.07-7.39.12l-7.06.12c-1.08.02-1.08.02-6.53.11-5.34.21-5.34.21-10.34 1.21v2l-4 4h-2v6l-1 1v4c0 4.75-.4 9.29-1 14 .83-.17.83-.17 5-1-.02-1.27-.04-2.53-.07-3.83-.01-.83-.01-.83-.05-4.98-.03-1.64-.05-3.28-.07-4.96.19-4.23.19-4.23 2.19-7.23h2v-2h2v-2h2v-2h22v2l-4.16-.03-5.46.09c-1.79.01-3.58.02-5.42.04-4.96.9-4.96.9-8.55 3.8-3 5.1-3.21 8.65-3.28 14.54l-.12 5.43c0 1.36 0 2.72-.01 4.13-.82.16-.82.16-5 1l-2 7 2 1c-.49.16-.49.16-3 1-.16-.83-.16-.83-1-5l-1 126h-1c-.03-24.5-.04-49-.06-73.5l-.03-21.19c0-6.65 0-13.3-.01-20.16 0-3.07 0-3.07-.01-18.66.16-20.91.16-20.91 4.11-27.49h2v-2h2v-2c14.12-6.05 31.76-3.39 46.78-3.4"/><path fill="#32425b" d="M172.131 183.628c4.45 0 8.91.01 13.5.01h14.57c5.07.02 10.14.03 15.36.05 5.07 0 10.15-.01 15.37-.01 37.8.06 37.8.06 40.07 2.32l-1 7c-18.31.03-36.63.05-54.94.06l-15.87.03c-4.96 0-9.92.01-15.03.01-4.6.01-9.21.01-13.95.02-10.21-.12-10.21-.12-11.21-1.12v-5c3-3 3-3 13.13-3.37"/><path fill="#47586f" d="M160 331h87c.16 1.15.16 1.15 1 7l-3 1v2c-13.77.09-27.54.14-41.31.19-3.94.02-7.87.05-11.92.07l-11.32.03c-3.46.02-6.92.03-10.49.05C162 341 162 341 159 338z"/><path fill="#0e2141" d="M122 439c30.65.11 61.29.24 91.94.38l26.57.09 25.14.12 23.35.09c5.61.11 11.22.21 17 .32l1 2h-62v3c3.97 1.32 7.64 1.33 11.82 1.54.88.04.88.04 5.31.26 1.83.09 3.67.17 5.56.26.92.05.92.05 5.59.28L287 448v1c-16.67.84-33.27 1.12-49.96 1.1-5.03-.01-10.05-.01-15.23-.01-2.6-.01-2.6-.01-15.75-.03-2.64 0-2.64 0-16.02-.01-13.01-.01-26.03-.03-39.04-.05 4.08-4.08 11.25-3.01 16.71-3.13 20.33.02 20.33.02 30.29 1.13v-5c-2.2-.01-4.39-.03-6.65-.04-9.89-.08-19.78-.18-29.66-.27-3.46-.03-6.92-.05-10.48-.07-3.28-.04-6.56-.07-9.95-.11-3.04-.02-6.08-.05-9.22-.08C125 442 125 442 122 439"/><path fill="#273951" d="M407 264h1c.06 16.12.09 32.25.12 48.38l.06 13.96c0 4.37.01 8.74.02 13.25l.03 12.28C408 361 408 361 406 363h-3v6c-.17.33-.17.33-1 2v4h-3c-1.34-6.72-1.13-13.14-1.13-19.99 0-3.04-.01-6.08-.01-9.21.01-3.19.01-6.39.02-9.68-.01-3.12-.01-6.24-.02-9.46.01-16.58.2-33.1 1.14-49.66 4 1 4 1 5 2 1-2 1-2 1.5-8.06.5-5.94.5-5.94 1.5-6.94"/><path fill="#091c38" d="M299.219 326.867h9.39c1.63 0 1.63 0 9.89.01 3.27-.01 6.53-.01 9.9-.01h18.07c6.53.13 6.53.13 8.53 1.13.18 4.99.21 9.98.2 14.98-.01 3.06-.02 6.12-.02 9.28-.01 1.62-.01 1.62-.05 9.81l-.03 9.81c-.02 8.04-.06 16.08-.1 24.12-.49-.16-.49-.16-3-1v-65h-67l-.06 23.13-.03 7.21c-.01 10.61.13 21.09 1.09 31.66 3 0 3 0 7-1l1-4 5 1c.66-.16.66-.16 4-1l1 3h3l3-3v4l4 2-1 2c9.31 0 13.89-3.48 21-9 .17.66.17.66 1 4h-2l2 4h7c-.16.5-.16.5-1 3-3.53.51-3.53.51-8.27.68-1.73.07-3.46.13-5.24.2-8.7.2-17.4.27-26.11.25-1.77 0-3.54.01-5.36.01-12.89-.01-12.89-.01-14.02-1.14-.26-11.49-.18-23-.19-34.5l-.03-9.93c-.01-3.11-.01-6.21-.01-9.41 0-2.88-.01-5.76-.01-8.73.08-2.12.16-4.24.24-6.43 4.66-2.33 12.26-1.13 17.22-1.13"/><path fill="#78828c" d="M122 62h181v2l6-1c4.67 4.02 4.67 4.02 9.75 9.38 9.19 9.59 9.19 9.59 11.25 10.62v2h2v2h2v2l-4-1v-2h-2v-2h-3l-1-4h-2v-2h-2v-2h-2v-2h-2v-2h-2v-2c-16.51-6.6-34.3-4.26-51.81-4.27h-24.45c-8.49 0-16.99.01-25.74.02-4.25 0-4.25 0-25.74-.02h-24.45c-3.73.01-3.73.01-22.6.01C122 66 122 66 115 68v2h-2v2h-2c-3.42 8.54-3.15 16.85-3.25 26-.03 2.49-.06 4.99-.1 7.56-.06 5.28-.11 10.56-.17 15.84-.03 2.48-.07 4.97-.1 7.53-.03 2.29-.05 4.58-.08 6.94-.1 1.69-.2 3.39-.3 5.13-.33.16-.33.16-2 1q-.045-16.155-.06-32.31l-.03-9.32c0-2.92 0-5.85-.01-8.86 0-2.71-.01-5.41-.01-8.2C105 77 105 77 106 74c2.65-2.35 5.32-4.68 8-7l3-4 5 1z"/><path fill="#263c57" d="M111 335h4v50h-2v6l-3 4h3v-2l4-3c.01 1.22.03 2.43.04 3.68.08 5.51.18 11.01.27 16.51.03 1.91.05 3.82.07 5.8.04 1.83.07 3.66.11 5.55.02 1.69.05 3.39.08 5.13C118 431 118 431 121 436v2h-2v-2h-2l-3-5-7-1v-71h3c-.01-1.31-.02-2.63-.04-3.98 0-1.72-.01-3.44-.02-5.21-.01-1.7-.03-3.41-.04-5.17.1-4.64.1-4.64 1.1-9.64"/><path fill="#102042" d="M250 234c7.46-.19 14.92-.24 22.38-.23 4.59 0 9.18 0 13.92.01l14.7.03h14.7c36.16.05 36.16.05 37.3 1.19v5c-2.81 2.81-7.89 1.07-11.85 1.11-4.9 0-9.8-.01-14.84-.01-2.64 0-2.64 0-15.99-.01-2.78-.01-2.78-.01-16.88-.03-2.79 0-2.79 0-16.9-.01-13.85-.01-27.69-.03-41.54-.05v-2h19v-3h-5z"/><path fill="#0c1c3a" d="M216 283h92v2h-70v2c12.98.06 25.96.09 38.94.12l11.25.06c1.75 0 1.75 0 10.65.02l9.89.03c1.2-.04 1.2-.04 7.27-.23l1-2h-6v-2c6.81-.03 13.62-.05 20.44-.06l5.9-.03c1.84 0 3.69 0 5.59-.01 1.72 0 3.43-.01 5.19-.01C352 283 352 283 353 284v5c-3.04 3.04-8.56 1.07-12.86 1.11-5.36 0-10.72-.01-16.24-.01-5.77-.01-11.54-.01-17.49-.01-3.05-.01-3.05-.01-18.47-.03-6.1 0-12.2-.01-18.49-.01-15.15-.01-30.3-.03-45.45-.05v-2l10-1v-2h-18z"/><path fill="#283d5d" d="M334 89h2v2h2v2h2v2h2v2h2v2h2v2h2v2h2v2h2v2h2v2h2v2h2v2h2v2h2c2.35 2.66 4.68 5.32 7 8 .82.66.82.66 5 4v3c.33.16.33.16 2 1l5 6c.33.16.33.16 2 1v2h2v2h2v2h2c.17 1.16.17 1.16 1 7-5.04-2.52-8.17-5.91-12-10v-2h-2l-5-6h-4c3 5 3 5 6.69 8.69L377 145v2h2v2h2c.17.66.17.66 1 4-5.28-3.17-8.03-6.34-12-11-2.43-2.51-4.88-4.99-7.36-7.46-.68-.68-.68-.68-4.13-4.12l-4.26-4.23c-1.42-1.42-2.84-2.84-4.31-4.3-3.64-3.63-7.29-7.26-10.94-10.89l-3-3 4-2 3-2 1 4 4 1c3.37 3.29 6.71 6.62 10 10l2 1v-2h-2l-1-4h-2v-2h-2v-2h-2v-2h-2v-2h-2v-2h-2v-2h-2v-2h-2v-2h-2v-2h-2v-2h-2c-.17-.83-.17-.83-1-5"/><path fill="#797f87" d="M118 82h1c.03 39.79.05 79.58.06 119.38l.03 33.78c.02 65.29-.25 130.56-1.09 195.84h-1l-1-39-3 1v2h-3l2-4 1-6h2v4h2l-1-283h-3v-4h5z"/><path fill="#314c6a" d="m112 103 1 3h2c.09 20 .14 40 .19 60 .02 5.7.05 11.41.07 17.29l.03 16.46c.02 5.03.03 10.05.05 15.23C115 227 115 227 112 235h-3c.14-9.92.29-19.83.44-29.75l.12-8.57.12-8.16c.04-2.5.08-4.99.11-7.56C110 175 110 175 111 171l-1-2c-.13-3.96-.18-7.92-.19-11.88-.01-2.16-.03-4.32-.04-6.55C110 145 110 145 112 141h-2v-4h3c-.25-.58-.25-.58-1.5-3.5-2.03-7.43-1.82-13.8-1.5-21.5l2-1c-.17-.83-.17-.83-1-5z"/><path fill="#111f38" d="m397 243 2 1c.33 6.22.47 12.42.57 18.65.08 3.45.25 6.9.43 10.35l2 1c.03-2.85.05-5.71.06-8.56.01-1.59.03-3.18.04-4.82C402 256 402 256 401 249h2l1-2c5.34 10.67 2.58 23.63 1 35l-3-4-3-1v98h3c-.17-.82-.17-.82-1-5l2-7c.66-.16.66-.16 4-1-.75 12.75-.75 12.75-3 15-.17.66-.17.66-1 4l-2-1 1-3h-3v19h-2c-3.18-6.36-1.13-29.21-1.13-34.97 0-6.76-.01-13.52-.01-20.48.01-7.13.01-14.26.02-21.61-.01-7.14-.01-14.28-.02-21.63 0-3.38 0-3.38.01-20.47v-18.99C396 244 396 244 397 243"/><path fill="#1f324c" d="m316 75 4 1v2h2v2h2l1 4h3v2h2v2l4 1 1 5h2v2h2v2h2v2h2v2h2v2h2v2h2v2h2v2h2v2h2v2h2c.17.66.17.66 1 4h2v2c-5.37-2.69-8.77-6.77-13-11l-3-1-2-3-4 3c-5.45-3.27-9.25-6.95-13.75-11.44-1.52-1.5-3.04-3.01-4.61-4.56-3.64-4-3.64-4-4.64-8h-3l1 75h-2c-4.77-9.54-1.54-27.97-1.69-38.5-.06-3.46-.12-6.91-.18-10.47-.05-3.28-.09-6.56-.14-9.94-.05-3.03-.09-6.07-.14-9.19C309 84 309 84 311 82h5v2h2v2h2c2.02 2.32 4.02 4.65 6 7l2 1v-5h-2c-3-4-3-4-3-6h-2v-2h-2v-2h-2z"/><path fill="#2b4865" d="m402 434 5 1v3h-2v4h-2v2h-2v2h-2v2h-2v3h-52v-5l-4 1c-14.86 1.38-14.86 1.38-19 0h-4v-4c5.72-1.14 10.95-1.13 16.79-1.13 1.16 0 1.16 0 7.04-.01 1.21.01 1.21.01 7.36.02 2.44-.01 4.88-.01 7.39-.02 1.16 0 1.16 0 7.03.01h6.47C375 442 375 442 377 443v2h2v3c-10.08.08-19.95-.08-30-1v3c7.27-.31 14.54-.62 21.81-.94 2.08-.08 4.15-.17 6.29-.26 1.97-.09 3.95-.18 5.98-.26 1.83-.08 3.66-.16 5.54-.24C393 448 393 448 396 447l1-4 4-5z"/><path fill="#27425f" d="m175 67-1 5h-23v2h-6v-2h-22v2h-2v2h-2v2h-2c-1.35 4.06-1.35 7.91-1.56 12.19-.09 1.64-.17 3.28-.26 4.98-.06 1.26-.12 2.53-.18 3.83-.83.16-.83.16-5 1-.05-2.85-.09-5.71-.12-8.56-.03-1.59-.05-3.18-.08-4.82C110 82 110 82 112 75h2l2-4h2v-2c5.13-2.05 8.35-2.32 13.82-2.45 1.73-.04 3.47-.09 5.25-.13.91-.02.91-.02 5.49-.11 1.79-.04 3.57-.09 5.41-.14 9.09-.21 17.97-.17 27.03.83"/><path fill="#4b5a6f" d="M162 282h191l-1 2c-3.02.11-6.05.07-9.07-.02-.92-.03-.92-.03-5.59-.16-1.95-.06-3.9-.13-5.9-.2-.98-.02-.98-.02-5.91-.17-4.85-.14-9.69-.29-14.53-.45v2h6l-1 3h-79l1-3h70v-2H162z"/><path fill="#121e34" d="M122 439c30.65.11 61.29.24 91.94.38l26.57.09 25.14.12 23.35.09c5.61.11 11.22.21 17 .32l1 2-105 1v3l7 1v1c-8.75.12-8.75.12-11-1v-4c-2.2-.01-4.39-.03-6.65-.04-9.89-.08-19.78-.18-29.66-.27-3.46-.03-6.92-.05-10.48-.07-3.28-.04-6.56-.07-9.95-.11-3.04-.02-6.08-.05-9.22-.08C125 442 125 442 122 439"/><path fill="#0c233f" d="M314 159c4 2 4 2 5 3 5.06.16 10.13.25 15.19.32l9.43.12 9.94.12c3.29.05 6.58.09 9.96.13 8.16.11 16.32.21 24.48.31v2c-4.12.16-4.12.16-25 1v3h17c.16.5.16.5 1 3h-24v-6l-4.56.06c-7.19-.07-14.27-.53-21.44-1.06l-1 4h23c.17.5.17.5 1 3-6.4.12-12.79.19-19.19.25-.91.02-.91.02-5.51.1-1.74.01-3.48.03-5.28.04l-4.87.06C315 172 315 172 310 168v-2h4v2h13v-2h-7l-6-4z"/><path fill="#1e3a58" d="M108 375h1c.19 2.77.38 5.54.56 8.31.11 1.55.21 3.09.32 4.68C110 392 110 392 109 395h4v-2l4-3c.01 1.22.03 2.43.04 3.68.08 5.51.18 11.01.27 16.51.03 1.91.05 3.82.07 5.8.04 1.83.07 3.66.11 5.55.02 1.69.05 3.39.08 5.13C118 431 118 431 121 436v2h-2v-2h-2l-3-5-7-1z"/><path fill="#344256" d="M395 176h1c.85 21.01 1.12 41.97 1 63h2v-8c.33-.16.33-.16 2-1l1-4h2v-2h2c1.95 12.08 2.21 23.77 2 36l-2-1c-.12-1.3-.25-2.6-.38-3.94-.2-1.34-.41-2.68-.62-4.06l-4-2 2 7c.13 3.14.17 6.29.12 9.44-.01 1.6-.03 3.21-.05 4.87-.02 1.22-.05 2.43-.07 3.69h-3c-2.67-2.67-1.45-11.59-1.56-15.56-.05-1.38-.09-2.76-.13-4.18-.11-3.42-.21-6.84-.31-10.26h-2c-.73-22.68-1.14-45.31-1-68"/><path fill="#49586b" d="M407 264h1v57h-2v-5l-6-2-1 2c-1.12-13.1-.75-25.88 0-39 4 1 4 1 5 2 1-2 1-2 1.5-8.06.5-5.94.5-5.94 1.5-6.94"/><path fill="#17324f" d="M284 378h1l1 14c3 0 3 0 7-1l1-4 5 1 4-1 1 3h3l3-3v4l4 2-1 2c9.3 0 13.89-3.48 21-9 .17.66.17.66 1 4h-2l2 4h7c-.17.5-.17.5-1 3-16.94 1.54-34.01 1.09-51 1v-1l-6-1z"/><path fill="#2a4461" d="M312 84h3l1 4h-1c-.14 12.27-.23 24.54-.31 36.81-.04 3.51-.09 7.01-.13 10.62-.02 3.33-.03 6.66-.05 10.09-.02 3.08-.05 6.17-.08 9.35.19 2.35.38 4.7.57 7.13 5 3 5 3 12 4v2c-8.5 1.12-8.5 1.12-13 0v-2h-4l3 5c-4-2-4-2-7-5v-2h2c-.33-1.12-.65-2.25-.99-3.41-1.07-4.85-1.21-9.13-1.13-14.09.01-1.6.03-3.2.05-4.84.02-1.21.05-2.42.07-3.66h4l1 21h2l-1-4c-.09-5.31-.11-10.61-.1-15.92.01-3.19.01-6.38.01-9.67l.03-10.16c0-1.68 0-1.68.01-10.21.01-8.34.03-16.69.05-25.04"/><path fill="#293850" d="M123 72h22v2l-4.16-.03-5.46.09c-1.79.01-3.58.03-5.42.04-4.96.9-4.96.9-8.55 3.81-3 5.1-3.21 8.64-3.29 14.53-.03 1.79-.07 3.58-.11 5.43 0 1.36-.01 2.73-.01 4.13l-5 1-2 7 2 1c-.5.16-.5.16-3 1-.17-.83-.17-.83-1-5l-1 126h-1V98h3v2l5-1c-.02-1.26-.05-2.53-.07-3.83-.01-.82-.01-.82-.05-4.98-.03-1.64-.05-3.27-.08-4.96C115 81 115 81 117 78h2v-2h2v-2h2z"/><path fill="#0b1936" d="M161 332h85c.16.82.16.82 1 5h-2v-3h-82v3c.91-.01.91-.01 5.54-.03 8.23-.04 16.47-.07 24.71-.09l8.71-.06c2.74 0 5.48-.01 8.31-.02 1.26 0 1.26 0 7.68-.03C224 337 224 337 228 339q-16.47.045-32.94.06l-9.51.03c-2.98 0-5.95 0-9.01.01-2.76 0-5.52.01-8.37.01C162 339 162 339 161 338z"/><path fill="#1d324c" d="M178 67h53v4c-5.46 1.82-11.29 1.63-17 2v1h-26v-2c-1.46-.08-2.93-.17-4.44-.25-1.5-.25-3.01-.5-4.56-.75z"/><path fill="#121f38" d="M312 440c5.57-.18 11.15-.21 16.72-.2 1.72.01 1.72.01 10.38.02l10.96.06c1.81 0 1.81 0 10.97.02 8.99.03 17.98.06 26.97.1v2c-5 2-5 2-8 1 .16.5.16.5 1 3 6.07 1.36 8.76.78 15-1v2c-10.98 7.32-34.37 3.08-47 3v-3c10.06-.12 19.97.35 30 1v-3h-2v-2c-10.89-.17-10.89-.17-66-1z"/><path fill="#16284a" d="M311 283c6.81-.03 13.62-.05 20.44-.06l5.9-.03c1.84 0 3.69 0 5.59-.01 1.72 0 3.43-.01 5.19-.01C352 283 352 283 353 284v5c-1 1-1 1-8.75 1.1-3.27-.01-6.54-.02-9.81-.04-1.67 0-3.33-.01-5.05-.01-4.13-.01-8.26-.03-12.39-.05l-1-3 1-2h-6z"/><path fill="#1b2f54" d="M205 234c7.42-.06 14.83-.09 22.25-.12l6.4-.06c1.01 0 1.01 0 6.12-.02l5.65-.03C250 234 250 234 254 236v3h-19v2h-3v-2h-33l1-3h5z"/><path fill="#2a4460" d="M114 227h1v12h2v2h-2v39l-5-3c-.71-3.56-.71-3.56-.81-8-.05-1.6-.09-3.2-.14-4.86-.02-1.69-.03-3.39-.05-5.14-.01-.86-.01-.86-.08-5.24-.11-12.81-.11-12.81 1.08-18.76h2z"/><path fill="#2e4a67" d="M164.895 441.77c3.31 0 6.61.02 9.92.04h5.05c12.43.05 12.43.05 18.14 1.19v5c-7.4.06-14.8.09-22.19.13-1.05 0-1.05 0-6.38.05-2.01 0-4.03.01-6.1.02-.93 0-.93 0-5.64.03-4.69-.23-4.69-.23-9.69-2.23l1-3c.99.17.99.17 6 1 2-2 2-2 9.89-2.23"/><path fill="#b9bcc0" d="M353 235c.33.16.33.16 2 1-1 5-1 5-3 8-8.59.27-17.19.32-25.79.29l-15.98-.03c-5.56-.02-11.12-.05-16.85-.07-2.79-.01-2.79-.01-16.89-.04q-20.745-.06-41.49-.15v-2l116-1z"/><path fill="#222f43" d="M284 327q17.19-.045 34.38-.06l9.92-.03c3.1 0 6.21 0 9.41-.01 2.88 0 5.76-.01 8.73-.01C353 327 353 327 355 328c.18 4.99.21 9.98.2 14.97-.01 3.07-.02 6.13-.02 9.29l-.06 9.8c0 3.24-.01 6.48-.02 9.82-.03 8.04-.06 16.08-.1 24.12-.5-.16-.5-.16-3-1v-65h-17v-2h-51z"/><path fill="#15233d" d="M304 80h2c.03 2.26.05 4.52.08 6.85.11 10.22.23 20.43.36 30.65l.12 10.78.12 10.31c.04 3.15.08 6.29.11 9.53C307 156 307 156 308 164l-4-2c-1.3-6.5-1.13-12.65-1.13-19.29 0-1.43 0-1.43-.01-8.67.01-1.5.01-1.5.02-9.1-.01-2.98-.01-5.96-.02-9.02 0-2.88.01-5.75.01-8.71v-7.96c.12-6.47.5-12.81 1.13-19.25"/><path fill="#3f546d" d="M107 430h7c3 4 3 4 3 6h2v2h2l-2-5 6 5v3l3 2v4c-7 0-7 0-12-2l4 2-1 4h-2l-3-3-4-2-1-4-3-2c.31-5.12.31-5.12 1-10"/><path fill="#3a4d67" d="m400 336 3 1c.78 3.98 1.45 7.98 2 12l1-2h2c.08 4.67.08 9.33 0 14l-2 2h-3v6l-1 2v4h-3c-1.19-5.95-1.17-11.49-1.19-17.56-.01-2.23-.03-4.46-.04-6.76C398 345 398 345 400 341l2 1-2-3z"/><path fill="#717a87" d="M280 328h2c1.07 14.7 1.11 29.33 1.06 44.06L283 397l70 1v1c-11.79.09-23.58.14-35.38.19-3.36.02-6.73.05-10.21.07-1.59.01-1.59.01-9.68.03-2.97.02-5.93.03-8.99.05-2.22-.11-4.45-.22-6.74-.34-3.56-5.33-2.22-11.92-2.2-18.17.01-3.06.02-6.11.02-9.27l.06-9.75c0-3.23.01-6.46.02-9.78.03-8.01.06-16.02.1-24.03"/><path fill="#38516a" d="M318 330h14l1 4-3 1-3 5-3 3-7-1-2 4h-5v-2h3l-1-2h-5l-1-6 2-2 3 1-1 3h2v-2l5-3z"/><path fill="#0b1d3c" d="M397 243c.33.16.33.16 2 1 .33 6.22.47 12.42.57 18.65.08 3.45.25 6.9.43 10.35l2 1c.03-2.85.05-5.71.06-8.56.01-1.59.03-3.18.04-4.82C402 256 402 256 401 249h2l1-2c5.34 10.67 2.58 23.63 1 35l-3-4-3-1v23h-2z"/><path fill="#0c1d3a" d="M393 170c6 5 6 5 6.69 10.25.1 1.57.2 3.13.31 4.75l3 1-.12-5.81C403 174 403 174 405 171c.14 2.43.29 4.87.44 7.38C406 186 406 186 407 188c-5 1-5 1-9 0l1 5c.08 3.52.11 7.03.1 10.55-.01 2.06-.01 4.12-.01 6.24l-.03 6.52c0 2.17-.01 4.35-.01 6.58-.01 5.37-.03 10.74-.05 16.11h-2l-.15-5.74c-.23-8.52-.48-17.05-.73-25.57-.07-2.98-.15-5.96-.23-9.03-.09-2.83-.17-5.67-.26-8.59-.07-2.62-.14-5.24-.22-7.95C395 176 395 176 393 173l-7-1v-2c3-1 3-1 7 0"/><path fill="#49596d" d="M395 347h1l1 49h2c-.19-2.39-.37-4.78-.56-7.25C398 381 398 381 399 377h3l1 4v-10l2 4c.12-1.3.25-2.6.38-3.94.2-1.34.41-2.68.62-4.06l2-1c.13 4 .12 8 0 12l-3 2c-.76 4.99-1.42 9.99-2 15l-1 4v2l-6-3v32h-1z"/><path fill="#314e6d" d="m112 103 1 3h2c.06 7.56.09 15.12.12 22.69l.06 6.52c0 2.06.01 4.12.02 6.24l.03 5.76C115 152 115 152 113 157c-3.37-3.37-2.78-7.42-3-12l2-4h-2v-4h3c-.25-.58-.25-.58-1.5-3.5-2.03-7.43-1.82-13.8-1.5-21.5l2-1c-.17-.83-.17-.83-1-5z"/><path fill="#1a2d51" d="M329 234c3.81-.03 7.62-.05 11.44-.06 2.12-.01 4.24-.03 6.43-.04 5.13.1 5.13.1 6.13 1.1v5c-1 1-1 1-6.57 1.1-2.31-.01-4.61-.03-6.99-.04-2.31-.01-4.63-.02-7.01-.02-.89-.01-.89-.01-5.43-.04v-2h-5v-3h7z"/><path fill="#071b37" d="M115 241h2v93h-2c-1.07-31.04-.83-61.95 0-93"/><path fill="#4b5463" d="M113 102h4c3.24 6.48 1.1 33.86 1.1 39.38-.01 7.67-.01 15.33-.01 23.23l-.03 24.51c0 8.1-.01 16.2-.01 24.55-.01 20.11-.03 40.22-.05 60.33h-1l-1-168h-3z"/><path fill="#172b4a" d="M188 283h28v2h18v2l-10 1v2h-37v-2c1.94-.05 3.87-.1 5.87-.15 1.25-.04 1.25-.04 7.57-.23 2.49-.06 4.99-.13 7.56-.21 1.98-.13 3.96-.27 6-.41l1-2h-27z"/><path fill="#122741" d="m314 159 4 2 6 2v1l7 1-1 4h23c.17.5.17.5 1 3-6.4.12-12.79.19-19.19.25-.91.02-.91.02-5.51.1-1.74.01-3.48.03-5.28.04l-4.87.06C315 172 315 172 310 168v-2h4v2h13v-2h-7l-6-4z"/><path fill="#27425d" d="M233 67h39v5c-1.79-.19-3.59-.37-5.44-.56-1.83-.15-3.67-.29-5.56-.44l-1 1 7 1v1h-12v-1c-2.92-.34-5.83-.67-8.75-1-1.62-.19-3.25-.37-4.92-.56C237 71 237 71 233 71z"/><path fill="#2a4461" d="m110 151 2 4 1 1 2-4v40h-4l-1 2c-.03-3.08-.05-6.17-.06-9.25-.01-.86-.01-.86-.04-5.2.1-4.55.1-4.55 1.1-8.55l-1-2c-.07-3.04-.08-6.08-.06-9.12.01-1.66.02-3.31.02-5.01.02-1.28.03-2.56.04-3.87"/><path fill="#6b717c" d="m117 63 4 1v3l-6 1v2h-2v2h-2c-3.42 8.54-3.15 16.85-3.25 26-.03 2.49-.06 4.99-.1 7.56-.06 5.28-.11 10.56-.17 15.84-.03 2.48-.07 4.97-.1 7.53-.03 2.29-.05 4.58-.08 6.94-.1 1.69-.2 3.39-.3 5.13-.33.16-.33.16-2 1q-.045-16.155-.06-32.31l-.03-9.32c0-2.92 0-5.85-.01-8.86 0-2.71-.01-5.41-.01-8.2C105 77 105 77 106 74c2.65-2.35 5.32-4.68 8-7z"/><path fill="#2e4a66" d="M241 443v3h-4v2c-28.2.27-28.2.27-35-2v-3c13.08-1.56 25.9-.91 39 0"/><path fill="#2f4058" d="M406 378c2 2 2 2 2.27 5.84-.01 1.54-.01 3.08-.02 4.66.01 1.54.01 3.07.02 4.66C408 397 408 397 406 399c-.59 3.7-1 7.25-1 11h-2v6h-4c-.83-5.72-1.09-11.23-1-17l4 2c-.17-.82-.17-.82-1-5l1-1 .94-7.44C404 380 404 380 406 378"/><path fill="#395269" d="m345 341 4 1v3h2c1.07 7.01.99 11.53-2 18l-4-1v-5h-2v-4l-6 1v-2l2-1-3-1 1-5c.66.17.66.17 4 1l1 3 1-2 5 1v-2l-3-1z"/><path fill="#284160" d="M327 442q11.94-.045 23.88-.06c1.13-.01 1.13-.01 6.88-.03 2.16 0 4.32 0 6.54-.01 2.01 0 4.01-.01 6.07-.01C375 442 375 442 377 443v2h2v3c-18.14.14-18.14.14-26-1l2-4c-2.39.19-4.79.37-7.25.56-7.03.45-13.74.23-20.75-.56z"/><path fill="#2d4966" d="M245 442c5.1-.03 10.21-.05 15.31-.06.73-.01.73-.01 4.41-.03 10.94-.02 10.94-.02 14.28 1.09v4c-5.1.05-10.21.09-15.31.12l-4.41.06c-10.94.05-10.94.05-14.28-2.18z"/><path fill="#5e6877" d="M393 150h2v2h2v2h2v2h2v2h2v2h2v4h2c.86 5.18 1.1 9.66 1.06 14.88-.01 1.52-.02 3.04-.02 4.61-.02 1.16-.03 2.32-.04 3.51l-3-1c-.38-4-.71-8-1-12l-2-3-2-7c-4-5-4-5-6-6-.41-2.66-.75-5.32-1-8"/><path fill="#0b1835" d="m161 185 4 1h-2v4h66l-1 2c-4.89.2-9.79.26-14.68.27h-9.13c-1.59 0-1.59 0-9.63-.02-3.17.01-6.35.02-9.62.02h-9.12c-1.4-.01-1.4-.01-8.46-.01C161 192 161 192 159 190c1-4 1-4 2-5"/><path fill="#27425f" d="M306 440h6v1c1.81.17 1.81.17 11 1v1h-5v4c-8.02.58-15.95 1.14-24 1v-2l-4 1v-4l16-2z"/><path fill="#162846" d="M328 447c2.96-.08 5.92-.23 8.88-.44 1.52-.1 3.04-.2 4.61-.31.58-.04.58-.04 3.51-.25v5c-7.33-.14-14.67-.29-22-.44l-6.3-.12-6.08-.12c-1.84-.04-3.68-.08-5.58-.11-4.41-.18-8.68-.58-13.04-1.21 2-2 2-2 7.69-2.06l7.31.06c1.31-.09 1.31-.09 7.94-.56C322 446 322 446 328 447"/><path fill="#707a88" d="M312 84h3l1 4h-1l-1 68-2-1c-.18-5.21-.21-10.42-.2-15.63.01-3.2.02-6.4.02-9.7l.06-10.23c0-3.38.01-6.77.02-10.25.03-8.4.06-16.79.1-25.19"/><path fill="#26415c" d="M195 67h36v4c-5.77 1.92-11.91 1.13-17.88.44C209 71 209 71 205 72c-3.35-.6-6.68-1.26-10-2z"/><path fill="#2e4864" d="M111 335h4v31l-4 1c-1.09-5.47-1.13-10.42-1.12-16-.01-1.94-.01-3.88-.01-5.88C110 340 110 340 111 335"/><path fill="#0e213b" d="M310 86c4.03 4.03 2.36 12.47 2.41 17.73l.12 9.68.09 10.21.12 10.24c.1 8.38.18 16.76.26 25.14h-2c-2.37-4.74-1.11-12.7-1.1-17.73.01-3.19.01-6.39.01-9.68.01-1.69.01-1.69.03-10.21 0-1.69 0-1.69.01-10.24.01-8.38.03-16.76.05-25.14"/><path fill="#a5abb5" d="M334 89h2v2h2v2h2v2h2v2h2v2h2v2h2v2h2v2h2v2h2v2h2v2h2v2h2v2h2c2.35 2.66 4.68 5.32 7 8 .82.66.82.66 5 4v3c.33.16.33.16 2 1l-3 1v-3h-2v-2h-2v-2h-2v-2l-4-1v-2h-2v-3h-2v-2l-4-1v-2h-2v-2h-2v-2h-2v-2h-2v-2h-2v-2h-2v-2h-2v-2h-2v-2h-2v-2h-2c-.17-.83-.17-.83-1-5"/><path fill="#6c7781" d="M387 159h2v4c-11.65.06-23.29.09-34.94.12l-10.09.06c-1.58 0-1.58 0-9.56.02l-8.87.03c-2.16-.08-4.32-.15-6.54-.23l-1-2h69z"/><path fill="#0f2644" d="M108 375h1c.19 2.77.38 5.54.56 8.31.11 1.55.21 3.09.32 4.68C110 392 110 392 109 395h4v-2l4-3v6h-4v4h-3v25c.5-.17.5-.17 3-1l-1 5c-.83.17-.83.17-5 1z"/><path fill="#69727d" d="M105 368c.33.17.33.17 2 1 .26 3.88.38 7.78.45 11.67.04 2.42.09 4.84.13 7.33.04 2.56.07 5.12.11 7.75.04 2.51.09 5.02.14 7.61.18 11.3.17 22.37-.83 33.64l-2-1c-.18-4.99-.21-9.98-.2-14.97.01-3.07.02-6.13.02-9.29l.06-9.8c0-3.24.01-6.48.02-9.82.03-8.04.06-16.08.1-24.12"/><path fill="#4a586a" d="M402 434c.82.17.82.17 5 1v3h-2v4h-2v2h-2v2h-2v2h-2v3h-52v-1c2.12-.06 4.25-.12 6.44-.18 39.59-1.16 39.59-1.16 44.56-2.82l1-4 4-5z"/><path fill="#162c4a" d="M225 442h20v3c3.97 1.32 7.64 1.33 11.82 1.54.88.04.88.04 5.31.26 1.83.09 3.67.17 5.56.26.92.05.92.05 5.59.28L287 448v1c-16.01.84-31.97 1.12-48 1l2-2-4-2h4v-3h-16z"/><path fill="#1e3654" d="M276 442h26v1h-12v4l4-1-1 2 7 1v1h-29v-1l-9-1v-1h17v-4z"/><path fill="#11233e" d="M396 398h2c1.91 5.73 1.05 12.01 1 18h5l-1 3h-4c.08 1.65.17 3.3.25 5-.25 6.03-.92 9.05-4.25 14l-5 2c2-5 2-5 5-10 .37-5.47.6-10.84.69-16.31.03-1.51.07-3.01.1-4.56q.12-5.565.21-11.13"/><path fill="#0f1c39" d="M186 185c9.48-.06 18.96-.09 28.44-.12l8.21-.06c1.28 0 1.28 0 7.78-.02l7.22-.03c1.77.08 3.53.15 5.35.23.16.33.16.33 1 2-12.3.91-24.55 1.11-36.88 1.12-1.61.01-3.22.01-4.88.02-11.75-.02-11.75-.02-16.24-1.14z"/><path fill="#223757" d="m269 185 2 1v4h-2v2h-22v-2h-14v-2c5.42-.22 10.83-.43 16.25-.62.77-.04.77-.04 4.67-.2 11.63-.41 11.63-.41 16.08 1.82-.17-.66-.17-.66-1-4"/><path fill="#223c60" d="M308 283h3v2h6l-1 3h-39l2-1v-2h29z"/><path fill="#2e4b6c" d="M398 240h2l2 4 2 1-1 4h-2l2 7c.13 3.14.17 6.29.12 9.44-.01 1.6-.03 3.21-.05 4.87-.02 1.22-.05 2.43-.07 3.69h-3c-2.82-2.82-1.45-13.28-1.56-17.56-.05-1.57-.09-3.14-.13-4.76-.11-3.89-.21-7.79-.31-11.68"/><path fill="#21365f" d="M180 234v2h14v3h-31v-4c5.67-1.42 11.18-1.06 17-1"/><path fill="#101f3b" d="M166.348 282.902c2.22.01 4.43.02 6.71.04 2.22 0 4.44.01 6.73.02 1.72.01 3.44.03 5.21.04v2h-22v2l21 1v2q-5.685.075-11.37.12c-1.06.01-1.06.01-6.4.07-5.23-.19-5.23-.19-7.23-2.19 1.25-4.99 1.25-4.99 7.35-5.1"/><path fill="#0b1b36" d="M123 72h22v2l-4.13-.06c-14.44.16-14.44.16-20.56 4-3.44 7.52-3.37 14.87-3.31 23.06h-2q-.075-4.905-.12-9.81c-.03-1.82-.05-3.65-.08-5.52C115 81 115 81 117 78h2v-2h2v-2h2z"/><path fill="#0e1a37" d="M304 80h2v59h-1c-.34-5.58-.67-11.17-1-16.75-.1-1.57-.19-3.14-.29-4.75-.74-12.61-.91-24.9.29-37.5"/><path fill="#142542" d="m333 93 4 1v2h2v2h2v2h2v2h2v2h2v2h2v2h2v2h2v2h2v2h2l1 4h2v2c-5.37-2.69-8.77-6.77-13-11l-3-1-2-3-4 3-3-3 4-1c-2-5-2-5-6-9z"/><path fill="#395375" d="m306 103 3 1v37c-3-3-3-3-3.29-10.95.02-3.25.05-6.49.1-9.74.02-1.65.03-3.31.04-5.02.04-4.09.09-8.19.15-12.29"/><path fill="#0e1a2f" d="M403 247c7.17 9.56 3.55 23.87 2 35-3.03-4.54-2.4-8.84-2.56-14.25-.2-6.39-.54-12.42-1.44-18.75h2z"/><path fill="#212e45" d="M396 244h1c.03 1.66.05 3.33.08 5.05.11 7.52.23 15.05.36 22.57l.12 7.95.12 7.59c.04 2.32.08 4.63.11 7.02C398 300 398 300 399 306l-1 2c-.24 4.71-.41 9.42-.56 14.12-.09 2.59-.17 5.17-.26 7.83-.06 1.99-.12 3.99-.18 6.05h-1z"/><path fill="#2c4564" d="m400 336 3 1c1 5 1 5-2 12h-1l-1 14h3l1-4c.12 9.75.12 9.75-1 12v4h-3c-1.19-5.95-1.17-11.49-1.19-17.56-.01-2.23-.03-4.46-.04-6.76C398 345 398 345 400 341l2 1-2-3z"/><path fill="#15223d" d="M348 117c4.92 4.12 9.51 8.42 14 13 3.42 3.42 6.86 6.81 10.31 10.19C377 145 377 145 377 147h2v2h2c.17.66.17.66 1 4-5.33-3.2-7.95-6.31-12-11q-7.215-7.2-14.52-14.31c-2.55-2.51-5.02-5.09-7.48-7.69z"/><path fill="#2c364a" d="M371 131c6 2 6 2 12 7v2h2v2h2v2h2l1 7c-5.04-2.52-8.17-5.91-12-10v-2h-2c-5-6-5-6-5-8"/><path fill="#555" d="m346 97 2 2h-2z"/><path d="m399 449 2 1Zm2-2 2 1Zm2-2 2 1Z"/><path fill="#7f7f7f" d="m405 443 2 1Z"/><path d="m399 153 2 1Zm-2-2 2 1Zm-2-2 2 1Zm-2-2 2 1Zm-2-2 2 1Zm-2-2 2 1Z"/><path fill="#7f7f7f" d="m344 96 2 1Z"/><path fill="#007f7f" d="m342 94 2 1Z"/><path d="m340 92 2 1Z"/><path fill="#00007f" d="m338 90 2 1Z"/><path fill="#007f7f" d="m336 88 2 1Zm-2-2 2 1Z"/></svg>